<?xml version="1.0" encoding="UTF-8" standalone="no"?>
<!DOCTYPE svg PUBLIC "-//W3C//DTD SVG 1.1//EN"
 "http://www.w3.org/Graphics/SVG/1.1/DTD/svg11.dtd">
<!-- Generated by graphviz version 2.44.0 (20200408.0750)
 -->
<!-- Title: G Pages: 1 -->
<svg width="566pt" height="856pt"
 viewBox="0.00 0.00 566.00 856.00" xmlns="http://www.w3.org/2000/svg" xmlns:xlink="http://www.w3.org/1999/xlink">
<g id="graph0" class="graph" transform="scale(1 1) rotate(0) translate(4 852)">
<title>G</title>
<polygon fill="white" stroke="transparent" points="-4,4 -4,-852 562,-852 562,4 -4,4"/>
<g id="clust1" class="cluster">
<title>cluster_Global</title>
<path fill="none" stroke="gray" d="M383.02,-8C383.02,-8 538,-8 538,-8 544,-8 550,-14 550,-20 550,-20 550,-828 550,-828 550,-834 544,-840 538,-840 538,-840 383.02,-840 383.02,-840 377.02,-840 371.02,-834 371.02,-828 371.02,-828 371.02,-20 371.02,-20 371.02,-14 377.02,-8 383.02,-8"/>
<text text-anchor="middle" x="460.51" y="-826.1" font-family="Times,serif" font-size="11.00" fill="gray">Global</text>
</g>
<g id="clust2" class="cluster">
<title>cluster_\Drupal</title>
<path fill="none" stroke="gray" d="M391.02,-16C391.02,-16 530,-16 530,-16 536,-16 542,-22 542,-28 542,-28 542,-799 542,-799 542,-805 536,-811 530,-811 530,-811 391.02,-811 391.02,-811 385.02,-811 379.02,-805 379.02,-799 379.02,-799 379.02,-28 379.02,-28 379.02,-22 385.02,-16 391.02,-16"/>
<text text-anchor="middle" x="460.51" y="-797.1" font-family="Times,serif" font-size="11.00" fill="gray">Drupal</text>
</g>
<g id="clust3" class="cluster">
<title>cluster_\Drupal\neptune_sync</title>
<path fill="none" stroke="gray" d="M399.02,-24C399.02,-24 522,-24 522,-24 528,-24 534,-30 534,-36 534,-36 534,-770 534,-770 534,-776 528,-782 522,-782 522,-782 399.02,-782 399.02,-782 393.02,-782 387.02,-776 387.02,-770 387.02,-770 387.02,-36 387.02,-36 387.02,-30 393.02,-24 399.02,-24"/>
<text text-anchor="middle" x="460.51" y="-768.1" font-family="Times,serif" font-size="11.00" fill="gray">neptune_sync</text>
</g>
<g id="clust4" class="cluster">
<title>cluster_\Drupal\neptune_sync\querier</title>
<path fill="none" stroke="gray" d="M413.62,-518C413.62,-518 507.4,-518 507.4,-518 513.4,-518 519.4,-524 519.4,-530 519.4,-530 519.4,-741 519.4,-741 519.4,-747 513.4,-753 507.4,-753 507.4,-753 413.62,-753 413.62,-753 407.62,-753 401.62,-747 401.62,-741 401.62,-741 401.62,-530 401.62,-530 401.62,-524 407.62,-518 413.62,-518"/>
<text text-anchor="middle" x="460.51" y="-739.1" font-family="Times,serif" font-size="11.00" fill="gray">querier</text>
</g>
<g id="clust5" class="cluster">
<title>cluster_\Drupal\neptune_sync\Utility</title>
<path fill="none" stroke="gray" d="M436.71,-437C436.71,-437 484.31,-437 484.31,-437 490.31,-437 496.31,-443 496.31,-449 496.31,-449 496.31,-498 496.31,-498 496.31,-504 490.31,-510 484.31,-510 484.31,-510 436.71,-510 436.71,-510 430.71,-510 424.71,-504 424.71,-498 424.71,-498 424.71,-449 424.71,-449 424.71,-443 430.71,-437 436.71,-437"/>
<text text-anchor="middle" x="460.51" y="-496.1" font-family="Times,serif" font-size="11.00" fill="gray">Utility</text>
</g>
<g id="clust6" class="cluster">
<title>cluster_\Drupal\neptune_sync\Graph</title>
<path fill="none" stroke="gray" d="M410.32,-248C410.32,-248 510.7,-248 510.7,-248 516.7,-248 522.7,-254 522.7,-260 522.7,-260 522.7,-417 522.7,-417 522.7,-423 516.7,-429 510.7,-429 510.7,-429 410.32,-429 410.32,-429 404.32,-429 398.32,-423 398.32,-417 398.32,-417 398.32,-260 398.32,-260 398.32,-254 404.32,-248 410.32,-248"/>
<text text-anchor="middle" x="460.51" y="-415.1" font-family="Times,serif" font-size="11.00" fill="gray">Graph</text>
</g>
<g id="clust7" class="cluster">
<title>cluster_\Drupal\neptune_sync\Form</title>
<path fill="none" stroke="gray" d="M407.02,-113C407.02,-113 514,-113 514,-113 520,-113 526,-119 526,-125 526,-125 526,-228 526,-228 526,-234 520,-240 514,-240 514,-240 407.02,-240 407.02,-240 401.02,-240 395.02,-234 395.02,-228 395.02,-228 395.02,-125 395.02,-125 395.02,-119 401.02,-113 407.02,-113"/>
<text text-anchor="middle" x="460.51" y="-226.1" font-family="Times,serif" font-size="11.00" fill="gray">Form</text>
</g>
<g id="clust8" class="cluster">
<title>cluster_\Drupal\neptune_sync\Controller</title>
<path fill="none" stroke="gray" d="M407.02,-32C407.02,-32 514,-32 514,-32 520,-32 526,-38 526,-44 526,-44 526,-93 526,-93 526,-99 520,-105 514,-105 514,-105 407.02,-105 407.02,-105 401.02,-105 395.02,-99 395.02,-93 395.02,-93 395.02,-44 395.02,-44 395.02,-38 401.02,-32 407.02,-32"/>
<text text-anchor="middle" x="460.51" y="-91.1" font-family="Times,serif" font-size="11.00" fill="gray">Controller</text>
</g>
<!-- \\Drupal\\neptune_sync\\querier\\QueryManager -->
<g id="node1" class="node">
<title>\\Drupal\\neptune_sync\\querier\\QueryManager</title>
<polygon fill="none" stroke="black" points="508.2,-724 412.82,-724 412.82,-688 508.2,-688 508.2,-724"/>
<text text-anchor="middle" x="460.51" y="-702.7" font-family="Courier,monospace" font-size="11.00">QueryManager</text>
</g>
<!-- \\Drupal\\neptune_sync\\querier\\QueryTemplate -->
<g id="node2" class="node">
<title>\\Drupal\\neptune_sync\\querier\\QueryTemplate</title>
<polygon fill="none" stroke="black" points="511.3,-670 409.73,-670 409.73,-634 511.3,-634 511.3,-670"/>
<text text-anchor="middle" x="460.51" y="-648.7" font-family="Courier,monospace" font-size="11.00">QueryTemplate</text>
</g>
<!-- \\Drupal\\neptune_sync\\querier\\QueryBuilder -->
<g id="node3" class="node">
<title>\\Drupal\\neptune_sync\\querier\\QueryBuilder</title>
<polygon fill="none" stroke="black" points="508.2,-616 412.82,-616 412.82,-580 508.2,-580 508.2,-616"/>
<text text-anchor="middle" x="460.51" y="-594.7" font-family="Courier,monospace" font-size="11.00">QueryBuilder</text>
</g>
<!-- \\Drupal\\neptune_sync\\querier\\Query -->
<g id="node4" class="node">
<title>\\Drupal\\neptune_sync\\querier\\Query</title>
<polygon fill="none" stroke="black" points="487.51,-562 433.51,-562 433.51,-526 487.51,-526 487.51,-562"/>
<text text-anchor="middle" x="460.51" y="-540.7" font-family="Courier,monospace" font-size="11.00">Query</text>
</g>
<!-- \\Drupal\\neptune_sync\\Utility\\Helper -->
<g id="node5" class="node">
<title>\\Drupal\\neptune_sync\\Utility\\Helper</title>
<polygon fill="none" stroke="black" points="488.11,-481 432.92,-481 432.92,-445 488.11,-445 488.11,-481"/>
<text text-anchor="middle" x="460.51" y="-459.7" font-family="Courier,monospace" font-size="11.00">Helper</text>
</g>
<!-- \\Drupal\\neptune_sync\\Graph\\Graph -->
<g id="node6" class="node">
<title>\\Drupal\\neptune_sync\\Graph\\Graph</title>
<polygon fill="none" stroke="black" points="487.51,-400 433.51,-400 433.51,-364 487.51,-364 487.51,-400"/>
<text text-anchor="middle" x="460.51" y="-378.7" font-family="Courier,monospace" font-size="11.00">Graph</text>
</g>
<!-- \\Drupal\\neptune_sync\\Graph\\GraphGenerator -->
<g id="node7" class="node">
<title>\\Drupal\\neptune_sync\\Graph\\GraphGenerator</title>
<polygon fill="none" stroke="black" points="514.9,-346 406.13,-346 406.13,-310 514.9,-310 514.9,-346"/>
<text text-anchor="middle" x="460.51" y="-324.7" font-family="Courier,monospace" font-size="11.00">GraphGenerator</text>
</g>
<!-- \\Drupal\\neptune_sync\\Graph\\GraphFilters -->
<g id="node8" class="node">
<title>\\Drupal\\neptune_sync\\Graph\\GraphFilters</title>
<polygon fill="none" stroke="black" points="508.2,-292 412.82,-292 412.82,-256 508.2,-256 508.2,-292"/>
<text text-anchor="middle" x="460.51" y="-270.7" font-family="Courier,monospace" font-size="11.00">GraphFilters</text>
</g>
<!-- \\Drupal\\neptune_sync\\Form\\LocalGraphForm -->
<g id="node9" class="node">
<title>\\Drupal\\neptune_sync\\Form\\LocalGraphForm</title>
<polygon fill="none" stroke="black" points="514.9,-211 406.13,-211 406.13,-175 514.9,-175 514.9,-211"/>
<text text-anchor="middle" x="460.51" y="-189.7" font-family="Courier,monospace" font-size="11.00">LocalGraphForm</text>
</g>
<!-- \\Drupal\\Core\\Form\\FormBase -->
<g id="node12" class="node">
<title>\\Drupal\\Core\\Form\\FormBase</title>
<ellipse fill="none" stroke="black" cx="165.51" cy="-166" rx="127.94" ry="18"/>
<text text-anchor="middle" x="165.51" y="-161.8" font-family="Times,serif" font-size="14.00" fill="gray">\Drupal\Core\Form\FormBase</text>
</g>
<!-- \\Drupal\\neptune_sync\\Form\\LocalGraphForm&#45;&gt;\\Drupal\\Core\\Form\\FormBase -->
<g id="edge1" class="edge">
<title>\\Drupal\\neptune_sync\\Form\\LocalGraphForm&#45;&gt;\\Drupal\\Core\\Form\\FormBase</title>
<path fill="none" stroke="black" d="M406.11,-188.08C371.73,-184.91 325.66,-180.67 283.11,-176.75"/>
<polygon fill="none" stroke="black" points="283.24,-173.24 272.96,-175.81 282.59,-180.21 283.24,-173.24"/>
</g>
<!-- \\Drupal\\neptune_sync\\Form\\SparqlQueryForm -->
<g id="node10" class="node">
<title>\\Drupal\\neptune_sync\\Form\\SparqlQueryForm</title>
<polygon fill="none" stroke="black" points="518,-157 403.03,-157 403.03,-121 518,-121 518,-157"/>
<text text-anchor="middle" x="460.51" y="-135.7" font-family="Courier,monospace" font-size="11.00">SparqlQueryForm</text>
</g>
<!-- \\Drupal\\neptune_sync\\Form\\SparqlQueryForm&#45;&gt;\\Drupal\\Core\\Form\\FormBase -->
<g id="edge2" class="edge">
<title>\\Drupal\\neptune_sync\\Form\\SparqlQueryForm&#45;&gt;\\Drupal\\Core\\Form\\FormBase</title>
<path fill="none" stroke="black" d="M403.02,-144.21C368.99,-147.34 324.38,-151.45 283.09,-155.26"/>
<polygon fill="none" stroke="black" points="282.59,-151.79 272.95,-156.19 283.23,-158.76 282.59,-151.79"/>
</g>
<!-- \\Drupal\\neptune_sync\\Controller\\GraphController -->
<g id="node11" class="node">
<title>\\Drupal\\neptune_sync\\Controller\\GraphController</title>
<polygon fill="none" stroke="black" points="518,-76 403.03,-76 403.03,-40 518,-40 518,-76"/>
<text text-anchor="middle" x="460.51" y="-54.7" font-family="Courier,monospace" font-size="11.00">GraphController</text>
</g>
<!-- \\Drupal\\Core\\Controller\\ControllerBase -->
<g id="node13" class="node">
<title>\\Drupal\\Core\\Controller\\ControllerBase</title>
<ellipse fill="none" stroke="black" cx="165.51" cy="-58" rx="165.52" ry="18"/>
<text text-anchor="middle" x="165.51" y="-53.8" font-family="Times,serif" font-size="14.00" fill="gray">\Drupal\Core\Controller\ControllerBase</text>
</g>
<!-- \\Drupal\\neptune_sync\\Controller\\GraphController&#45;&gt;\\Drupal\\Core\\Controller\\ControllerBase -->
<g id="edge3" class="edge">
<title>\\Drupal\\neptune_sync\\Controller\\GraphController&#45;&gt;\\Drupal\\Core\\Controller\\ControllerBase</title>
<path fill="none" stroke="black" d="M403.02,-58C384.78,-58 363.49,-58 341.31,-58"/>
<polygon fill="none" stroke="black" points="341.06,-54.5 331.06,-58 341.06,-61.5 341.06,-54.5"/>
</g>
</g>
</svg>
